HIERARCHY
ROOT Hips
{
	OFFSET 0.000000 0.000000 0.000000 
	CHANNELS 6 Xposition Yposition Zposition Zrotation Yrotation Xrotation
	JOINT LeftUpLeg
	{
		OFFSET 1.363060 -1.794630 0.839290 
		CHANNELS 3 Zrotation Yrotation Xrotation
		JOINT LeftLeg
		{
			OFFSET 2.448110 -6.726130 0.000000 
			CHANNELS 3 Zrotation Yrotation Xrotation
			JOINT LeftFoot
			{
				OFFSET 2.562200 -7.039590 0.000000 
				CHANNELS 3 Zrotation Yrotation Xrotation
				JOINT LeftToeBase
				{
					OFFSET 0.157640 -0.433110 2.322550 
					CHANNELS 3 Zrotation Yrotation Xrotation
					End Site
					{
						OFFSET 0.000000 0.000000 0.000000 
					}
				}
			}
		}
	}
	JOINT RightUpLeg
	{
		OFFSET -1.305520 -1.794630 0.839290 
		CHANNELS 3 Zrotation Yrotation Xrotation
		JOINT RightLeg
		{
			OFFSET -2.542530 -6.985550 0.000000 
			CHANNELS 3 Zrotation Yrotation Xrotation
			JOINT RightFoot
			{
				OFFSET -2.568260 -7.056230 0.000000 
				CHANNELS 3 Zrotation Yrotation Xrotation
				JOINT RightToeBase
				{
					OFFSET -0.164730 -0.452590 2.363150 
					CHANNELS 3 Zrotation Yrotation Xrotation
					End Site
					{
						OFFSET 0.000000 0.000000 0.000000 
					}
				}
			}
		}
	}
	JOINT Spine
	{
		OFFSET 0.028270 2.035590 -0.193380 
		CHANNELS 3 Zrotation Yrotation Xrotation
		JOINT Spine1
		{
			OFFSET 0.056720 2.048850 -0.042750 
			CHANNELS 3 Zrotation Yrotation Xrotation
			JOINT Neck1
			{
				OFFSET -0.054170 1.746240 0.172020 
				CHANNELS 3 Zrotation Yrotation Xrotation
				JOINT Head
				{
					OFFSET 0.104070 1.761360 -0.123970 
					CHANNELS 3 Zrotation Yrotation Xrotation
					End Site
					{
						OFFSET 0.000000 0.000000 0.000000 
					}
				}
			}
			JOINT LeftArm
			{
				OFFSET 3.362410 1.200890 -0.311210 
				CHANNELS 3 Zrotation Yrotation Xrotation
				JOINT LeftForeArm
				{
					OFFSET 4.983000 -0.000000 -0.000000 
					CHANNELS 3 Zrotation Yrotation Xrotation
					JOINT LeftHand
					{
						OFFSET 3.483560 -0.000000 -0.000000 
						CHANNELS 3 Zrotation Yrotation Xrotation
						JOINT LeftHandIndex1
						{
							OFFSET 0.715260 -0.000000 -0.000000 
							CHANNELS 3 Zrotation Yrotation Xrotation
							End Site
							{
								OFFSET 0.000000 0.000000 0.000000 
							}
						}
					}
				}
			}
			JOINT RightArm
			{
				OFFSET -3.136600 1.374050 -0.404650 
				CHANNELS 3 Zrotation Yrotation Xrotation
				JOINT RightForeArm
				{
					OFFSET -5.241900 -0.000000 -0.000000 
					CHANNELS 3 Zrotation Yrotation Xrotation
					JOINT RightHand
					{
						OFFSET -3.444170 -0.000000 -0.000000 
						CHANNELS 3 Zrotation Yrotation Xrotation
						JOINT RightHandIndex1
						{
							OFFSET -0.622530 -0.000000 -0.000000 
							CHANNELS 3 Zrotation Yrotation Xrotation
							End Site
							{
								OFFSET 0.000000 0.000000 0.000000 
							}
						}
					}
				}
			}
		}
	}
}
MOTION
Frames: 6
Frame Time: 0.041667
10.721257 17.611154 -0.660934 87.608428 -78.871938 -79.934450 -23.134343 -6.891161 -3.677376 -0.350302 5.798570 15.202200 -7.621974 34.356690 -13.245169 0.723100 -5.433600 -15.149500 8.959909 26.606123 0.413816 -2.598340 -9.430868 26.984408 7.558528 -44.442060 6.921494 -5.046600 13.436100 -41.023600 -0.325716 3.249788 -4.229639 1.018510 1.635099 4.864634 -3.696096 2.774534 10.746747 -2.723000 0.920000 5.844700 -73.047922 0.395544 18.027792 29.723128 -34.498060 -9.508909 -0.761689 -0.296824 -30.549889 -7.125000 0.000000 0.000000 81.873565 -6.467839 -29.307711 -22.091851 24.628187 -4.850311 -1.668853 0.081042 16.887590 7.125000 0.000000 0.000000 
10.701919 17.700575 -0.660151 81.293268 -84.280568 -71.755205 -16.684811 -8.140114 -7.305861 -0.020640 7.017059 18.578964 -7.419921 33.442523 -15.635885 0.613600 -5.013500 -13.947100 15.190688 26.817319 -0.371851 -2.127639 -8.452011 23.651370 8.321101 -46.094054 6.499816 -5.498300 13.923900 -42.933300 0.114278 3.188778 -4.424623 0.105542 1.826432 5.163396 -3.733414 2.737780 10.763318 -2.637400 0.919200 5.581600 -73.910580 1.302287 17.520650 29.677928 -34.484451 -9.519922 -0.734962 -0.354103 -30.199396 -7.125000 0.000000 0.000000 82.178214 -7.552146 -21.385200 -22.651373 25.760228 -5.499961 -1.663236 -1.269636 -2.859289 7.125000 0.000000 0.000000 
10.703708 17.715665 -0.656910 68.915135 -86.570611 -58.476345 -13.446543 -8.721902 -8.874941 0.099498 7.415296 19.581833 -7.422003 33.277137 -16.098316 0.610700 -5.001800 -13.913800 18.170704 28.777076 1.216505 -1.779221 -7.781211 21.815089 11.719415 -47.309086 -16.026481 -4.122300 12.321400 -36.878700 0.348556 3.110420 -4.535936 -0.298539 1.901148 5.159011 -3.803174 2.737835 10.727788 -2.621300 0.934900 5.356300 -74.640376 2.078736 17.171275 29.422830 -34.257036 -9.415067 -0.720307 -0.403815 -30.105856 -7.125000 0.000000 0.000000 82.185563 -7.998251 -19.538244 -23.143710 26.305260 -5.595076 -1.584684 -1.342538 -7.482747 7.125000 0.000000 0.000000 
10.702478 17.715441 -0.648080 67.608940 -86.555455 -57.270662 -13.404917 -8.998374 -9.214614 0.228384 7.746948 20.559219 -7.386494 33.242349 -16.638429 0.665000 -5.215100 -14.523100 18.032128 27.775272 2.330572 -1.627368 -7.145044 20.174503 8.526872 -41.880025 -28.664480 -2.254100 9.376400 -26.979900 0.373635 3.080654 -4.566472 -0.227440 1.893983 4.926778 -3.854919 2.787956 10.700634 -2.638900 0.973600 5.191000 -75.380774 2.833962 16.762664 29.014842 -33.884804 -9.237468 -0.718479 -0.444944 -30.105862 -7.125000 0.000000 0.000000 82.192170 -8.165472 -19.454827 -23.295527 26.436793 -5.644338 -1.625622 -1.272262 -7.883876 7.125000 0.000000 0.000000 
10.699684 17.728519 -0.640032 67.740555 -86.570807 -57.495389 -13.424323 -8.941909 -9.324560 0.264455 7.856130 20.931920 -7.182054 32.747906 -17.436787 0.581200 -4.881600 -13.571200 17.800415 26.038434 2.136368 -1.551933 -6.829311 19.327575 7.054107 -39.365663 -30.984653 -1.421200 7.539100 -21.322500 0.390888 3.035076 -4.595946 -0.192692 1.877525 4.697365 -3.916559 2.896284 10.670774 -2.669800 1.038900 5.057400 -76.262870 3.585764 16.170203 28.480948 -33.386400 -8.993815 -0.719072 -0.481625 -30.036948 -7.125000 0.000000 0.000000 82.323574 -8.334741 -19.227770 -23.472406 26.627409 -5.745144 -1.566242 -1.403643 -8.213757 7.125000 0.000000 0.000000 
10.697784 17.739585 -0.633549 68.468726 -86.626906 -58.265780 -13.388804 -8.876254 -9.246994 0.228981 7.810395 20.884117 -6.873959 32.017578 -18.645773 0.404900 -4.085300 -11.316700 17.562699 24.406056 1.998492 -1.580534 -6.693273 19.175884 1.665991 -29.500029 -40.159348 -0.059500 -1.573600 4.328700 0.443732 2.878445 -4.664045 0.007924 1.813376 4.253020 -3.991823 3.075921 10.478186 -2.677600 1.155000 4.691500 -77.515756 4.751813 15.483920 27.842324 -32.789955 -8.727828 -0.715120 -0.530996 -29.920520 -7.125000 0.000000 0.000000 82.451135 -8.807520 -18.704341 -23.706894 26.869177 -5.903738 -1.474381 -1.594558 -8.497374 7.125000 0.000000 0.000000 
